<?xml version="1.0" standalone="no"?>
<!DOCTYPE svg PUBLIC "-//W3C//DTD SVG 20010904//EN"
 "http://www.w3.org/TR/2001/REC-SVG-20010904/DTD/svg10.dtd">
<svg version="1.0" xmlns="http://www.w3.org/2000/svg"
width="50.000000pt" height="  50.000000pt" viewBox="0 0 450.000000 450.000000"
 preserveAspectRatio="xMidYMid meet">
<metadata>
Created by potrace 1.14, written by Peter Selinger 2001-2017
</metadata>
<g transform="translate(0.000000,450.000000) scale(0.100000,-0.100000)"
fill="#000000" stroke="none">
<path d="M2035 4260 c-38 -5 -92 -16 -120 -25 -98 -33 -345 -166 -399 -214
-26 -24 -76 -93 -76 -106 0 -9 59 -5 65 5 3 6 10 10 16 10 5 0 9 -4 9 -10 0
-5 -6 -10 -13 -10 -16 0 -91 -72 -95 -91 -4 -16 -70 -79 -83 -79 -5 0 -9 7 -9
15 0 8 -4 15 -10 15 -5 0 -10 -7 -10 -15 0 -8 5 -15 10 -15 6 0 10 -9 10 -19
0 -11 -4 -23 -10 -26 -5 -3 -10 1 -10 9 0 9 -5 16 -11 16 -7 0 -9 -17 -5 -52
5 -42 4 -49 -4 -35 -11 18 -12 18 -26 0 -7 -10 -14 -41 -14 -70 0 -28 -5 -55
-10 -58 -13 -8 -13 -222 0 -230 5 -3 10 -30 11 -58 l1 -52 10 44 c7 30 6 57
-1 87 -14 54 -14 201 -1 209 6 4 10 12 9 18 -1 7 1 20 5 29 6 13 12 15 26 8
15 -8 17 -19 12 -78 -3 -45 -1 -72 7 -76 6 -4 7 -13 2 -24 -13 -26 -31 -86
-31 -105 0 -28 43 -25 62 5 10 16 25 28 33 28 9 0 29 7 44 15 15 7 48 15 72
17 44 2 99 23 99 37 0 4 -22 13 -50 20 -27 7 -52 17 -56 22 -6 10 -77 12 -87
2 -4 -3 -18 -8 -32 -9 -19 -2 -25 2 -25 17 0 21 20 27 20 7 0 -7 5 -5 11 5 5
9 17 17 25 17 9 0 14 7 12 18 -4 17 46 47 62 37 5 -3 6 5 3 16 -5 19 -3 21 18
17 18 -3 30 2 42 18 18 24 11 40 -10 22 -11 -9 -16 -9 -23 2 -7 12 -10 12 -15
-2 -4 -9 -13 -14 -21 -11 -10 3 -12 0 -8 -10 3 -8 0 -18 -5 -22 -6 -3 -9 -11
-6 -16 4 -5 -1 -9 -10 -9 -13 0 -14 4 -5 21 13 23 8 35 -9 24 -6 -3 -9 -12 -5
-18 3 -7 -1 -4 -9 6 -8 9 -21 17 -30 17 -47 0 -18 53 37 66 17 4 34 9 39 10 4
1 24 2 45 3 33 1 40 6 55 36 10 21 31 42 57 55 23 12 43 27 46 35 3 8 15 17
27 21 19 6 19 8 4 19 -15 11 -15 14 -3 24 8 7 25 9 39 6 14 -4 28 -2 31 4 4 6
16 7 29 3 12 -4 37 -7 56 -7 29 0 36 5 47 32 l14 32 -45 -4 c-31 -2 -43 0 -39
7 5 7 0 9 -15 5 -17 -4 -24 0 -32 20 -5 14 -12 23 -16 20 -3 -4 -15 -1 -27 5
-11 7 -29 11 -38 9 -14 -2 -18 5 -18 26 0 21 7 31 28 40 66 29 118 43 163 43
26 0 50 4 53 9 3 4 38 11 78 15 40 4 91 9 113 12 102 12 324 -5 351 -27 8 -7
36 -12 62 -11 26 0 60 -4 75 -10 34 -13 47 -3 21 17 -42 33 -122 83 -145 90
-13 4 -28 11 -34 15 -14 11 -139 50 -215 66 -70 15 -87 15 -195 4z"/>
<path d="M2782 3927 c35 -68 35 -70 20 -97 -15 -25 -16 -26 -48 -10 -18 8 -35
23 -37 33 -4 12 -14 17 -35 15 -17 -1 -36 3 -44 9 -7 6 -29 16 -48 21 -19 6
-60 19 -90 30 -30 11 -81 22 -112 25 -46 4 -61 2 -79 -14 -12 -10 -26 -19 -31
-19 -5 0 -6 -5 -2 -11 3 -6 1 -15 -7 -19 -11 -7 -11 -13 1 -35 11 -21 12 -41
3 -113 -15 -115 1 -203 38 -213 14 -3 35 0 51 9 21 12 34 13 61 5 19 -6 41 -7
48 -3 19 10 79 -16 79 -34 0 -13 -77 -24 -167 -23 -34 0 -100 -42 -110 -72 -3
-9 -15 -24 -27 -33 -20 -17 -19 -18 45 -18 37 0 86 7 109 15 43 15 75 12 123
-12 33 -16 35 -38 5 -55 -13 -7 -23 -20 -23 -28 0 -12 -11 -14 -50 -12 -42 2
-54 -1 -77 -23 -15 -14 -35 -25 -45 -25 -17 1 -17 1 0 14 16 12 16 16 4 23 -8
4 -17 17 -19 28 -2 13 -11 19 -23 18 -101 -13 -155 -22 -164 -28 -20 -12 -51
-84 -51 -118 0 -38 18 -97 29 -97 13 0 31 -50 31 -88 1 -20 8 -55 16 -77 8
-22 16 -44 17 -50 3 -17 29 -31 80 -45 49 -13 71 -34 82 -80 5 -19 0 -31 -19
-49 -25 -24 -57 -21 -37 3 17 21 2 26 -71 26 -73 0 -68 3 -134 -73 -17 -20
-17 -21 4 -35 12 -8 22 -21 22 -28 0 -20 -48 -29 -75 -14 -22 12 -23 14 -9 35
14 22 13 25 -21 59 -30 30 -43 36 -80 36 -24 0 -50 -3 -59 -6 -25 -9 -8 -24
27 -24 36 0 80 -20 80 -35 0 -10 -59 -26 -97 -26 -10 0 -28 9 -40 20 -29 28
-42 26 -50 -5 -5 -17 0 -36 14 -60 19 -30 20 -35 6 -40 -9 -3 -16 -15 -16 -25
0 -23 32 -26 50 -4 7 8 25 15 41 15 15 0 40 5 55 11 58 21 301 7 354 -21 9 -5
23 -16 30 -25 15 -19 56 -39 80 -39 8 -1 16 -11 18 -23 3 -23 -10 -29 -58 -25
-8 1 -33 -4 -55 -10 l-40 -10 38 -19 c20 -11 52 -20 70 -21 44 -1 95 26 99 54
8 60 128 1 128 -62 0 -15 -7 -30 -15 -34 -17 -6 -11 -31 16 -61 18 -20 17 -21
-41 -75 -33 -29 -60 -59 -60 -65 0 -6 -8 -18 -17 -27 -39 -37 -61 -64 -65 -78
-3 -9 -31 -18 -89 -26 -88 -12 -165 -12 -366 3 -135 10 -120 3 -231 109 -55
53 -70 63 -115 70 -29 5 -60 8 -69 8 -11 0 -18 7 -18 17 0 10 -4 20 -8 23 -5
3 -7 19 -4 36 3 24 1 29 -11 25 -10 -4 -17 2 -21 20 -5 20 -11 25 -26 20 -15
-5 -20 -2 -21 12 0 10 -3 13 -5 6 -9 -20 36 -148 62 -178 29 -34 54 -88 54
-118 0 -11 6 -28 14 -36 25 -30 28 -79 5 -102 -26 -26 -22 -64 8 -64 13 0 47
-25 85 -62 106 -104 161 -142 300 -210 l97 -48 36 30 c19 17 35 35 35 40 0 6
31 9 72 7 66 -3 76 -1 103 23 17 14 39 34 51 44 11 10 35 26 52 37 18 10 32
22 32 26 0 4 5 8 11 8 13 0 212 148 217 162 2 4 8 8 14 8 5 0 29 19 53 43 41
42 43 47 48 113 5 82 36 203 66 259 12 21 21 47 21 57 0 15 5 30 31 93 8 21
16 77 25 183 5 60 8 64 45 87 21 14 44 25 50 25 7 0 18 8 26 18 20 26 63 120
63 140 0 9 7 49 15 87 32 152 12 236 -59 249 -20 4 -36 10 -36 14 -1 4 -2 72
-4 152 -2 154 -23 263 -71 383 -27 66 -80 137 -101 137 -8 0 -24 15 -35 34
-31 53 -54 56 -27 3z m-330 -761 c29 -29 60 -56 68 -58 11 -4 8 -9 -12 -18
-27 -13 -29 -30 -3 -30 8 0 25 -11 39 -25 14 -14 36 -25 49 -25 13 0 36 -11
51 -25 25 -23 26 -26 12 -47 -9 -12 -16 -19 -16 -15 0 4 -15 1 -34 -7 -26 -11
-37 -11 -46 -3 -10 9 -11 9 -6 0 3 -6 2 -14 -4 -18 -13 -8 -13 -75 0 -75 5 0
7 14 4 33 l-5 32 15 -25 c13 -23 13 -27 -6 -47 -20 -21 -20 -24 -5 -40 13 -16
14 -21 1 -37 -7 -11 -16 -17 -20 -14 -3 4 -21 -4 -41 -18 -34 -23 -36 -23 -59
-6 -28 20 -35 82 -9 82 8 0 15 5 15 11 0 6 -6 7 -12 2 -7 -4 -5 5 4 19 13 19
14 28 5 31 -16 5 7 56 34 75 19 13 18 17 -45 80 -36 36 -66 74 -66 84 0 10 12
24 27 31 l27 12 -28 5 c-16 3 -35 15 -43 26 -13 20 -11 23 19 43 18 11 34 21
35 21 1 0 26 -24 55 -54z"/>
<path d="M1430 3247 c-14 -7 -37 -21 -51 -30 -14 -9 -28 -14 -31 -11 -12 11
-26 -31 -30 -88 -4 -56 -4 -58 20 -58 21 0 23 -3 18 -27 -5 -21 -4 -24 4 -13
5 8 10 10 10 4 0 -16 78 -35 86 -22 4 5 17 8 30 5 25 -4 61 24 50 41 -3 5 -21
17 -41 26 -39 19 -45 44 -17 69 25 23 36 21 51 -7 15 -27 50 -46 87 -46 23 0
84 52 84 72 0 5 11 8 25 8 30 0 33 23 6 48 -51 46 -49 46 -87 13 -25 -22 -45
-31 -71 -31 -32 0 -35 2 -31 24 3 16 0 27 -9 30 -25 10 -77 6 -103 -7z"/>
<path d="M1827 3223 c-4 -3 -7 -17 -7 -30 0 -13 -6 -26 -14 -29 -8 -3 -20 -20
-26 -37 -9 -25 -8 -34 3 -41 11 -7 11 -17 -1 -64 -13 -52 -13 -58 7 -94 11
-21 16 -38 10 -38 -5 0 -9 -4 -9 -8 0 -21 26 -6 28 15 3 33 17 51 92 114 36
31 69 68 75 83 13 38 -10 75 -58 91 -21 7 -46 20 -56 29 -19 17 -34 20 -44 9z"/>
<path d="M1498 1889 c-2 -18 -9 -23 -24 -22 -15 2 -39 -17 -82 -65 -136 -153
-319 -312 -360 -312 -21 0 -143 -58 -167 -80 -11 -10 -36 -21 -55 -25 -19 -4
-49 -16 -66 -26 -17 -10 -38 -19 -46 -19 -9 0 -21 -7 -28 -14 -6 -8 -28 -20
-48 -27 -40 -12 -120 -47 -195 -85 -26 -13 -53 -24 -60 -24 -8 0 -22 -9 -31
-19 -10 -10 -33 -22 -51 -25 -46 -9 -143 -54 -166 -77 -11 -11 -28 -19 -38
-19 -10 0 -32 -15 -48 -33 l-30 -34 3 -434 c2 -239 4 -460 4 -491 l0 -58 471
0 471 0 -7 68 c-3 37 -10 90 -15 117 -4 28 -6 65 -3 83 4 26 10 32 29 32 13 0
24 5 24 10 0 6 5 10 10 10 6 0 10 -7 10 -15 0 -7 6 -18 13 -22 24 -15 57 -113
38 -113 -17 0 -23 -51 -8 -69 8 -9 17 -24 20 -33 4 -12 17 -18 38 -18 30 0 31
1 16 18 -10 10 -17 24 -17 31 0 7 -10 21 -22 30 -15 12 -18 20 -10 25 7 4 12
2 12 -3 0 -6 7 -11 15 -11 8 0 15 7 15 15 0 8 -5 15 -10 15 -6 0 -8 11 -4 28
9 32 70 92 96 92 10 0 26 16 38 39 11 22 24 42 30 46 5 3 10 15 10 25 0 10 5
22 11 26 8 5 9 -9 4 -47 -7 -53 -28 -97 -52 -112 -7 -4 -13 -18 -13 -30 0 -28
15 -53 24 -39 8 13 58 0 63 -15 3 -7 -5 -17 -17 -23 -28 -15 -64 -98 -50 -115
6 -7 8 -20 4 -29 -4 -10 -1 -16 9 -16 8 0 18 6 20 13 4 9 6 9 6 0 1 -16 33
-17 49 -1 9 9 12 9 12 0 0 -7 5 -12 11 -12 8 0 9 12 5 38 -3 20 -13 91 -22
157 -9 66 -21 126 -26 133 -13 15 -4 232 11 297 5 22 14 121 20 221 15 259 27
360 72 613 11 61 55 191 69 205 14 14 19 5 31 -60 6 -32 20 -79 31 -103 20
-41 21 -50 10 -113 -16 -93 -15 -199 4 -283 8 -38 19 -92 24 -118 20 -101 51
-124 127 -92 19 8 42 15 51 15 8 0 23 6 31 13 9 8 39 20 66 27 28 8 55 19 60
25 6 7 31 20 57 29 25 9 52 24 58 32 7 7 18 14 24 14 7 0 18 16 25 36 15 42
41 54 121 54 56 0 61 -2 96 -40 39 -42 64 -84 64 -106 0 -9 11 -14 31 -14 19
0 37 -7 44 -17 12 -16 17 -16 50 -4 33 11 41 11 83 -9 26 -13 64 -29 84 -36
45 -16 47 -13 71 91 35 153 40 211 27 318 -11 100 -27 182 -39 202 -3 6 -13
30 -22 55 -13 38 -19 44 -39 42 -40 -6 -97 -51 -103 -81 -6 -27 -40 -51 -74
-51 -13 0 -13 3 -3 15 8 10 9 15 2 15 -18 0 -62 -23 -62 -32 0 -4 -5 -8 -11
-8 -6 0 -31 -20 -56 -45 -50 -50 -58 -53 -166 -64 l-77 -7 -48 36 c-48 36
-146 90 -164 90 -5 0 -16 6 -23 14 -8 8 -43 19 -79 25 -35 6 -83 18 -106 26
-58 21 -69 19 -80 -11 -13 -34 -32 -26 -43 17 -23 95 -29 132 -34 229 -5 100
-17 150 -25 99z"/>
<path d="M2836 1874 c-3 -8 -11 -55 -16 -102 -10 -80 -15 -108 -35 -199 -5
-21 -4 -33 3 -33 12 0 45 44 56 74 16 45 28 -9 33 -150 5 -155 -13 -825 -27
-999 -5 -55 -12 -155 -16 -222 -7 -121 -6 -123 15 -123 20 0 61 -32 61 -48 0
-23 23 -29 52 -14 29 14 32 14 47 -7 10 -12 24 -23 31 -24 8 -2 20 -6 27 -10
6 -4 331 -9 722 -11 l711 -4 0 255 c0 260 -12 379 -46 461 -8 18 -14 45 -14
60 0 15 -9 47 -20 71 -11 24 -20 49 -20 57 0 19 -52 93 -66 94 -6 0 -18 8 -28
18 -9 11 -34 24 -56 31 -21 6 -42 16 -45 22 -9 14 -130 67 -170 75 -19 3 -40
13 -46 20 -15 18 -150 84 -172 84 -9 0 -24 8 -34 18 -19 19 -102 54 -170 72
-24 6 -43 15 -43 21 0 5 -20 18 -45 29 -25 11 -45 24 -45 29 0 5 -15 14 -34
21 -18 6 -42 20 -51 30 -10 11 -25 20 -34 20 -9 0 -28 8 -41 17 -27 19 -67 42
-143 79 -26 14 -50 31 -53 39 -6 15 -94 90 -159 135 -20 14 -52 49 -71 78 -38
55 -48 62 -58 36z"/>
</g>
</svg>
